<svg version="1.1" xmlns="http://www.w3.org/2000/svg" style="display: block;" viewBox="0 0 1600 1600" width="400" height="400" preserveAspectRatio="none">
<path transform="translate(0,0)" fill="rgb(207,121,254)" d="M 0 0 L 1600 0 L 1600 1600 L 0 1600 L 0 0 z"/>
<path transform="translate(0,0)" fill="rgb(0,0,0)" d="M 578.623 372.411 C 584 371.816 592.402 372.449 598.496 372.123 C 695.745 366.923 689.968 415.895 691.062 490.849 C 709.617 491.12 728.75 489.631 747.479 489.49 L 911.859 488.999 C 911.861 478.059 912.898 466.111 913.095 455.001 C 913.337 441.379 913.114 427.469 913.73 413.919 C 942.152 369.037 966.369 371.229 1015.6 373.395 C 1039.16 374.432 1060.89 373.837 1078.74 392.632 C 1101.39 416.48 1096.83 457.804 1096.47 488.618 C 1114.93 488.789 1129.43 493.794 1143.53 505.875 C 1169.12 486.701 1189.74 489.078 1219.8 488.802 C 1245.14 488.57 1268.47 488.924 1288.38 507.337 C 1301.58 519.546 1305.53 533.589 1305.25 551.008 C 1306.36 631.147 1306.14 711.345 1305.75 791.496 C 1305.74 815.883 1305.58 840.269 1305.28 864.654 C 1304.99 889.375 1307.72 916.609 1288.98 935.892 C 1271.42 953.969 1248.13 953.553 1224.73 954.113 C 1223.39 977.517 1225.91 1004.01 1224.09 1027.99 C 1223.5 1035.68 1219.54 1048.04 1219.17 1053.19 C 1218.89 1057.07 1224.01 1067.95 1224.13 1077.03 C 1224.57 1108.54 1225.01 1139.85 1224.7 1171.42 C 1223.24 1200.16 1227.69 1234.62 1221.55 1262.65 C 1213.51 1299.34 1180.32 1307.55 1147.6 1306.79 C 1131.02 1306.4 1114.76 1307.61 1098.2 1307.08 C 1081.84 1306.45 1064.59 1307.62 1048.55 1303.71 C 1007.13 1293.61 1006.74 1263.26 1006.08 1228.36 L 1006.01 1196.2 C 987.015 1193.92 969.38 1191.59 954.882 1177.35 C 949.64 1172.28 945.704 1166.02 943.412 1159.1 C 939.03 1145.86 938.193 1104.4 937.996 1089.04 C 848.194 1090.05 756.479 1089.03 666.513 1089.13 C 664.8 1144.22 672.679 1189.13 601.26 1194.73 C 599.184 1227.18 607.298 1267.77 580.43 1291.71 C 558.68 1311.08 525.409 1305.83 498.253 1307.09 C 481.038 1307.88 461.822 1306.68 444.869 1306.32 C 426.266 1305.92 408.797 1300.98 396.58 1286.43 C 375.382 1263.18 381.353 1241.46 381.457 1213.61 L 381.474 1138.3 C 381.477 1122.14 379.669 1106.54 380.476 1090.12 C 381.155 1077.79 385.497 1065.72 386.087 1053.42 C 385.984 1048.79 384.849 1043.59 383.846 1039.08 C 377.617 1011.09 381.463 982.482 383.244 954.052 C 358.295 951.678 303.998 948.776 301.478 915.031 C 299.06 882.635 302.558 849.212 302.551 816.973 L 303.323 636.415 C 303.459 608.729 303.034 581.009 303.906 553.373 C 304.469 535.509 307.66 520.961 319.147 506.916 C 337.267 484.762 364.525 489.118 389.851 488.986 C 417.746 488.841 439.783 487.12 462.023 506.225 C 475.666 494.705 491.754 490.289 509.28 488.569 C 507.962 428.036 500.107 378.868 578.623 372.411 z"/>
<path transform="translate(0,0)" fill="rgb(254,254,254)" d="M 602.104 421.556 C 607.972 421.613 638.499 420.009 640.001 426.668 C 647.433 459.612 637.87 501.82 645.199 533.66 C 647.112 541.972 727.063 538.301 738.634 538.364 C 787.412 538.888 836.195 538.877 884.973 538.33 C 904.137 538.263 923.609 539.357 942.71 538.646 C 947.044 538.485 953.154 538.009 956.733 535.37 C 966.218 528.377 959.46 448.404 962.06 432.189 C 962.537 429.211 963.293 426.019 965.919 424.242 C 968.37 422.584 971.821 422.002 974.721 421.731 C 981.581 421.091 988.75 422.077 995.647 422.133 C 1008.35 422.236 1022.52 420.3 1035.03 422.57 C 1037.88 423.088 1042 423.966 1043.98 426.272 C 1055.86 440.117 1042.18 522.253 1051.49 533.896 C 1057.86 541.864 1088.07 537.478 1098.21 538.193 C 1102.48 538.494 1108.38 538.998 1111.44 542.278 C 1122.24 553.855 1107.14 605.251 1119.16 617.89 C 1124.76 623.786 1157.71 621.013 1166.78 620.84 C 1181.63 606.648 1168.42 562.365 1175.76 543.71 C 1179.77 533.524 1224.2 539.991 1233.53 537.789 C 1239.64 536.347 1250.53 539.368 1256.24 542.816 C 1259.8 558.974 1258.73 811.193 1255.12 824.814 C 1241.11 838.804 1180.8 819.596 1178.31 838.277 C 1173.37 875.412 1180.54 920.118 1174.17 957.432 C 1168.28 976.823 1104.35 951.862 1102.36 974.591 C 1101.19 987.977 1098.35 1050.53 1104.86 1062.93 C 1113.13 1074.11 1170.03 1059.34 1173.41 1071.96 C 1178.92 1092.57 1178.36 1161.52 1173.33 1180.72 C 1149.98 1183.66 1077.54 1184.41 1055.38 1180.25 C 1052.02 1151.05 1055.65 1115.86 1053.6 1086.15 C 1053.36 1082.67 1051.61 1075.09 1049.12 1073.19 C 1042.47 1068.1 1021.85 1069.88 1013.67 1070.03 C 1009.32 1070.13 992.302 1071.51 990.316 1066.53 C 982.56 1047.1 992.901 980.503 983.665 967.514 C 973.151 964.095 929.051 965.033 915.503 965.026 L 832.469 965.003 L 703.4 965.009 C 691.338 965.011 629.839 963.858 622.831 966.978 C 612.543 980.941 622.668 1044.97 616.644 1063.85 C 611.285 1080.65 555.944 1058.05 553.339 1080.99 C 550.04 1110.06 557.039 1151.46 549.848 1179.12 L 549.459 1180.59 C 531.876 1184.37 450.811 1185.09 433.006 1178.91 C 427.275 1176.93 430.601 1100.76 429.695 1091.37 C 429.421 1088.54 430.639 1073.45 433.726 1070.68 C 442.649 1063.2 498.664 1071.78 503.028 1063.18 C 509.729 1049.98 506.39 982.946 504.8 967.53 C 485.143 963.441 466.548 965.829 446.796 965.111 C 436.506 964.737 430.637 961.475 430.217 950.359 C 429.184 923.078 430.205 896.275 429.575 868.827 C 429.394 860.934 432.375 839.291 425.311 833.223 C 409.495 824.22 368.552 835.96 354.399 826.629 C 350.148 823.826 351.122 761.418 351.107 753.192 C 350.846 720.704 350.86 688.216 351.151 655.729 C 351.39 621.541 349.762 571.598 353.487 539.327 C 368.778 537.293 413.219 537.373 428.204 539.467 C 439.267 554.856 428.767 596.78 435.608 615.928 C 436.39 618.171 439.924 619.938 442.12 620.188 C 504.102 627.254 490.42 615.018 491.605 565.296 C 491.773 558.226 492.583 548.271 494.1 541.949 L 494.421 540.639 C 510.697 536.877 526.63 539.538 543.07 538.365 C 546.306 538.134 549.915 537.622 552.559 535.583 C 564.335 526.502 549.742 436.22 560.375 425.341 C 566.68 418.89 592.883 422.118 602.104 421.556 z"/>
<path transform="translate(0,0)" fill="rgb(0,0,0)" d="M 978.395 707.176 C 992.774 706.202 1015.84 706.923 1030.5 707.18 C 1033.55 709.037 1037.82 711.514 1039.45 714.868 C 1041.12 718.326 1041.17 813.656 1038.65 817.78 C 1036.47 821.327 1032.7 822.442 1028.97 823.665 C 1019.33 825.461 966.49 827.231 965.509 814.423 C 963.03 782.041 960.621 743.515 967.037 711.693 C 967.63 708.754 975.903 707.625 978.395 707.176 z"/>
<path transform="translate(0,0)" fill="rgb(0,0,0)" d="M 578.643 707.366 C 586.607 706.757 640.736 703.743 640.085 715.289 C 639.078 733.169 644.161 808.541 639.176 819.336 C 636.446 822.02 635.043 821.953 631.122 822.872 C 619.743 824.57 579.73 825.566 569.416 820.902 C 567.574 819.168 567.134 817.411 566.55 814.976 C 563.978 804.242 563.326 718.811 568.398 711.76 C 570.749 708.492 574.973 708.107 578.643 707.366 z"/>
</svg>